<svg width="54" height="20" viewBox="0 0 54 20" fill="none" xmlns="http://www.w3.org/2000/svg">
<path d="M14.8666 13.5307L11.564 4.18677C11.0162 2.49235 9.59754 1.28204 7.76382 1.28204C5.94893 1.28204 4.54176 2.47901 3.97722 4.13446L0.660024 13.5307C0.333845 14.4415 0.561752 15.4395 1.4117 15.9206C2.2606 16.4016 3.23705 16.1011 3.89672 15.3636L7.76382 11.0363L11.6309 15.3636C12.2864 16.1011 13.267 16.4016 14.1159 15.9206C14.9649 15.4395 15.2022 14.4477 14.8676 13.5307H14.8666Z" fill="white"/>
<path d="M23.65 6.10674H22.4222V3.83706C22.4222 3.22039 22.1772 2.91205 21.6872 2.91205C21.4509 2.91205 21.2635 3.00341 21.1252 3.18613C20.9869 3.36884 20.9177 3.58868 20.9177 3.84562V6.10674H19.6726V1.87571H20.8485V2.35534C21.0676 1.97277 21.4422 1.78149 21.9726 1.78149C22.5663 1.78149 22.9813 2.04415 23.2176 2.56946C23.4079 2.28396 23.6125 2.08126 23.8315 1.96135C24.0506 1.83574 24.3186 1.77293 24.6357 1.77293C25.1429 1.77293 25.5522 1.92709 25.8634 2.23543C26.1805 2.54376 26.339 3.06336 26.339 3.79423V6.10674H25.0853V3.81993C25.0853 3.23181 24.8691 2.93775 24.4368 2.93775C24.2005 2.93775 24.0102 3.02625 23.8661 3.20326C23.722 3.37455 23.65 3.58582 23.65 3.83706V6.10674Z" fill="white"/>
<path d="M31.3041 3.84562C31.3041 4.02834 31.2868 4.20535 31.2523 4.37664H28.2606C28.2952 4.62217 28.4162 4.8163 28.6237 4.95905C28.8313 5.09609 29.0647 5.16461 29.3241 5.16461C29.7622 5.16461 30.1484 5.03328 30.4827 4.77063L31.062 5.56716C30.6182 5.98969 30.0158 6.20096 29.2549 6.20096C28.5632 6.20096 27.9954 6.01253 27.5516 5.63568C27.1135 5.25311 26.8945 4.70782 26.8945 3.99979C26.8945 3.30318 27.1193 2.76074 27.5689 2.37247C28.0243 1.97848 28.569 1.78149 29.2031 1.78149C29.8256 1.78149 30.33 1.96421 30.7162 2.32964C31.1082 2.68937 31.3041 3.19469 31.3041 3.84562ZM29.7824 3.00627C29.621 2.86352 29.4163 2.79214 29.1685 2.79214C28.9206 2.79214 28.7131 2.86352 28.5459 3.00627C28.3788 3.1433 28.2837 3.346 28.2606 3.61437H30.0158C30.0216 3.346 29.9438 3.1433 29.7824 3.00627Z" fill="white"/>
<path d="M31.8736 0.11991H33.1187V3.53729L34.3811 1.88427H35.8509V1.96135L34.2859 3.87132L36.093 6.01253V6.10674H34.5972L33.1187 4.24817V6.10674H31.8736V0.11991Z" fill="white"/>
<path d="M38.1712 1.78149C38.886 1.78149 39.425 1.91567 39.7881 2.18404C40.157 2.4467 40.3415 2.86923 40.3415 3.45164V6.10674H39.1483V5.33591H39.1223C39.007 5.59285 38.8197 5.79841 38.5603 5.95258C38.3009 6.10674 38.0041 6.18383 37.6697 6.18383C37.2316 6.18383 36.8685 6.06106 36.5803 5.81554C36.2921 5.5643 36.148 5.23027 36.148 4.81345C36.148 4.37379 36.3065 4.03119 36.6235 3.78567C36.9463 3.54014 37.3613 3.41738 37.8686 3.41738C38.3124 3.41738 38.6842 3.49161 38.984 3.64006V3.55442C38.984 3.05195 38.6554 2.80071 37.9983 2.80071C37.6063 2.80071 37.174 2.88065 36.7013 3.04052L36.4506 2.10696C37.004 1.88998 37.5775 1.78149 38.1712 1.78149ZM38.102 5.14748C38.3384 5.14748 38.5401 5.08467 38.7073 4.95905C38.8745 4.83343 38.9753 4.65928 39.0099 4.4366C38.7448 4.29956 38.4594 4.23104 38.1539 4.23104C37.9522 4.23104 37.7908 4.27101 37.6697 4.35095C37.5544 4.43089 37.4968 4.54794 37.4968 4.70211C37.4968 4.84485 37.5544 4.9562 37.6697 5.03614C37.785 5.11036 37.9291 5.14748 38.102 5.14748Z" fill="white"/>
<path d="M41.1784 1.88427H42.4321V2.34677C42.703 1.96992 43.0834 1.78149 43.5734 1.78149C43.9769 1.78149 44.3256 1.90996 44.6196 2.16691L44.1008 3.1433C43.8991 3.00056 43.6714 2.92918 43.4178 2.92918C43.1353 2.92918 42.899 3.01769 42.7088 3.19469C42.5185 3.36599 42.4234 3.60295 42.4234 3.90558V6.10674H41.1784V1.88427Z" fill="white"/>
<path d="M46.1639 1.86714H44.9188V6.10674H46.1639V1.86714ZM45.0485 1.2676C44.9044 1.14198 44.8323 0.970686 44.8323 0.75371C44.8323 0.536733 44.9044 0.365436 45.0485 0.239818C45.1984 0.1142 45.3627 0.0513916 45.5414 0.0513916C45.72 0.0513916 45.8814 0.1142 46.0256 0.239818C46.1754 0.365436 46.2504 0.536733 46.2504 0.75371C46.2504 0.970686 46.1754 1.14198 46.0256 1.2676C45.8814 1.39322 45.72 1.45603 45.5414 1.45603C45.3627 1.45603 45.1984 1.39322 45.0485 1.2676Z" fill="white"/>
<path d="M21.5284 10.493H19.6738V17.2121C19.6738 18.0857 19.2458 18.3084 18.3898 17.8802L17.858 19.2292C18.2731 19.469 18.6967 19.6103 19.1291 19.6531C19.5614 19.6959 19.9591 19.6445 20.3223 19.4989C20.6854 19.3533 20.9794 19.0793 21.2042 18.6767C21.429 18.2742 21.5371 17.7688 21.5284 17.1607V10.493ZM19.8813 9.59369C19.6651 9.40527 19.5571 9.14832 19.5571 8.82286C19.5571 8.49739 19.6651 8.24045 19.8813 8.05202C20.1061 7.86359 20.3482 7.76938 20.6076 7.76938C20.8756 7.76938 21.1177 7.86359 21.3339 8.05202C21.5587 8.24045 21.6711 8.49739 21.6711 8.82286C21.6711 9.14832 21.5587 9.40527 21.3339 9.59369C21.1177 9.78212 20.8756 9.87633 20.6076 9.87633C20.3482 9.87633 20.1061 9.78212 19.8813 9.59369Z" fill="white"/>
<path d="M22.7365 10.5058H24.6171V13.859C24.6171 14.8439 25.0581 15.3364 25.94 15.3364C26.3637 15.345 26.7096 15.1951 26.9776 14.8868C27.2543 14.5784 27.3926 14.2101 27.3926 13.7819V10.5058H29.2343V16.8524H27.4834V16.0173C26.9906 16.6768 26.2989 16.998 25.4083 16.9809C23.6271 16.9809 22.7365 15.9445 22.7365 13.8718V10.5058Z" fill="white"/>
<path d="M30.5405 10.5187H32.4081L32.4211 11.2124C32.8275 10.6472 33.3982 10.3645 34.1331 10.3645C34.7383 10.3645 35.2615 10.5572 35.7024 10.9427L34.9242 12.4072C34.6216 12.1931 34.2801 12.0861 33.8996 12.0861C33.476 12.0861 33.1215 12.2188 32.8361 12.4843C32.5508 12.7413 32.4081 13.0967 32.4081 13.5507V16.8524H30.5405V10.5187Z" fill="white"/>
<path d="M42.649 16.8524H40.7684V13.4993C40.7684 12.5143 40.3274 12.0218 39.4455 12.0218C39.0218 12.0133 38.6716 12.1631 38.3949 12.4715C38.1269 12.7798 37.9929 13.1481 37.9929 13.5763V16.8524H36.1512V10.5058H37.9021V11.3152C38.4122 10.6557 39.1039 10.3346 39.9772 10.3517C41.7584 10.3517 42.649 11.3966 42.649 13.4864V16.8524Z" fill="white"/>
<path d="M46.4842 10.3645C47.5564 10.3645 48.3648 10.5658 48.9096 10.9684C49.4629 11.3623 49.7396 11.9961 49.7396 12.8697V16.8524H47.9498V15.6961H47.9109C47.738 16.0816 47.457 16.3899 47.0679 16.6212C46.6788 16.8524 46.2335 16.968 45.732 16.968C45.0749 16.968 44.5302 16.7839 44.0978 16.4156C43.6655 16.0387 43.4494 15.5377 43.4494 14.9125C43.4494 14.253 43.6871 13.7391 44.1627 13.3708C44.6469 13.0025 45.2694 12.8184 46.0303 12.8184C46.6961 12.8184 47.2538 12.9297 47.7034 13.1524V13.0239C47.7034 12.2702 47.2105 11.8934 46.2248 11.8934C45.6369 11.8934 44.9884 12.0133 44.2794 12.2531L43.9033 10.8527C44.7333 10.5273 45.5937 10.3645 46.4842 10.3645ZM46.3805 15.4135C46.735 15.4135 47.0376 15.3193 47.2884 15.1309C47.5391 14.9424 47.6904 14.6812 47.7423 14.3472C47.3446 14.1416 46.9166 14.0389 46.4583 14.0389C46.1557 14.0389 45.9136 14.0988 45.732 14.2187C45.5591 14.3386 45.4726 14.5142 45.4726 14.7455C45.4726 14.9596 45.5591 15.1266 45.732 15.2465C45.9049 15.3578 46.1211 15.4135 46.3805 15.4135Z" fill="white"/>
<path d="M51.0209 7.87216H52.8755V16.8524H51.0209V7.87216Z" fill="white"/>
</svg>
