<svg width="21" height="21" viewBox="0 0 21 21" fill="none" xmlns="http://www.w3.org/2000/svg">
<path d="M1.74866 1.74863L3.26997 1.74863C4.21424 1.74863 4.9574 2.56174 4.87871 3.49726L4.15303 12.2055C4.03062 13.6306 5.15849 14.8546 6.59237 14.8546L15.9039 14.8546C17.1629 14.8546 18.2645 13.8229 18.3607 12.5727L18.8328 6.0153C18.9377 4.56393 17.8361 3.3836 16.376 3.3836L5.08855 3.3836M7.86888 6.99453L18.3607 6.99453M15.3006 18.1421C15.3006 18.7457 14.8113 19.235 14.2077 19.235C13.6041 19.235 13.1148 18.7457 13.1148 18.1421C13.1148 17.5385 13.6041 17.0492 14.2077 17.0492C14.8113 17.0492 15.3006 17.5385 15.3006 18.1421ZM8.30603 18.1421C8.30603 18.7457 7.81673 19.235 7.21314 19.235C6.60955 19.235 6.12024 18.7457 6.12024 18.1421C6.12024 17.5385 6.60955 17.0492 7.21314 17.0492C7.81673 17.0492 8.30603 17.5385 8.30603 18.1421Z" stroke="#626B79" stroke-width="1.31148" stroke-miterlimit="10" stroke-linecap="round" stroke-linejoin="round"/>
</svg>
