<svg width="22" height="20" viewBox="0 0 22 20" fill="none" xmlns="http://www.w3.org/2000/svg">
<path d="M8.17157 2.82843L5.75736 5.24264C4.89027 6.10973 4.45672 6.54328 4.22836 7.09459C4 7.64591 4 8.25903 4 9.48528L4 13C4 15.8284 4 17.2426 4.87868 18.1213C5.75736 19 7.17157 19 10 19H12C14.8284 19 16.2426 19 17.1213 18.1213C18 17.2426 18 15.8284 18 13V9.48528C18 8.25903 18 7.64591 17.7716 7.09459C17.5433 6.54328 17.1097 6.10974 16.2426 5.24264L13.8284 2.82843M8.17157 2.82843C9.50491 1.4951 10.1716 0.82843 11 0.82843C11.8284 0.82843 12.4951 1.4951 13.8284 2.82843M8.17157 2.82843L1 10M13.8284 2.82843L21 10" stroke="#F2F2F2" stroke-width="1.5" stroke-linecap="round" stroke-linejoin="round"/>
</svg>
