<svg width="24" height="24" viewBox="0 0 24 24" fill="none" xmlns="http://www.w3.org/2000/svg">
<path d="M9.17157 4.82843L6.75736 7.24264C5.89027 8.10973 5.45672 8.54328 5.22836 9.09459C5 9.64591 5 10.259 5 11.4853L5 15C5 17.8284 5 19.2426 5.87868 20.1213C6.75736 21 8.17157 21 11 21H13C15.8284 21 17.2426 21 18.1213 20.1213C19 19.2426 19 17.8284 19 15V11.4853C19 10.259 19 9.64591 18.7716 9.09459C18.5433 8.54328 18.1097 8.10974 17.2426 7.24264L14.8284 4.82843M9.17157 4.82843C10.5049 3.4951 11.1716 2.82843 12 2.82843C12.8284 2.82843 13.4951 3.4951 14.8284 4.82843M9.17157 4.82843L2 12M14.8284 4.82843L22 12" stroke="#626B79" stroke-width="1.5" stroke-linecap="round" stroke-linejoin="round"/>
</svg>
